<?xml version="1.0" encoding="UTF-8" standalone="no"?><!DOCTYPE svg PUBLIC "-//W3C//DTD SVG 1.1//EN" "http://www.w3.org/Graphics/SVG/1.1/DTD/svg11.dtd"><svg width="100%" height="100%" viewBox="0 0 1600 1600" version="1.1" xmlns="http://www.w3.org/2000/svg" xmlns:xlink="http://www.w3.org/1999/xlink" xml:space="preserve" xmlns:serif="http://www.serif.com/" style="fill-rule:evenodd;clip-rule:evenodd;stroke-linejoin:round;stroke-miterlimit:2;"><path d="M800,540.887c143.008,0 259.113,116.104 259.113,259.113c0,143.008 -116.104,259.113 -259.113,259.113c-143.008,0 -259.113,-116.104 -259.113,-259.113c0,-143.008 116.104,-259.113 259.113,-259.113Zm0,134.25c-68.914,0 -124.863,55.949 -124.863,124.863c0,68.914 55.949,124.863 124.863,124.863c68.914,0 124.863,-55.949 124.863,-124.863c0,-68.914 -55.949,-124.863 -124.863,-124.863Z" style="fill:#ee6018;"/><path d="M93.66,800c-47.472,-100.614 -77.447,-199.687 -88.616,-291.275c-19.511,-160.002 17.575,-298.709 111.273,-392.407c93.698,-93.698 232.405,-130.784 392.407,-111.273c218.561,26.652 479.743,160.402 702.786,383.444c85.735,85.735 158.277,177.106 216.614,269.525c20.372,-56.641 33.993,-111.989 40.421,-164.703c14.186,-116.335 -6.785,-218.819 -74.911,-286.945c-68.127,-68.127 -170.611,-89.097 -286.945,-74.911c-4.244,0.518 -8.506,1.082 -12.784,1.692c-0.493,0.08 -0.988,0.155 -1.486,0.225c-35.006,4.892 -67.375,-19.389 -72.238,-54.188c-4.802,-34.358 18.994,-66.207 53.291,-71.716l0,-0.029c5.964,-0.876 11.898,-1.674 17.801,-2.394c160.002,-19.511 298.709,17.575 392.407,111.273c93.698,93.698 130.784,232.405 111.273,392.407c-11.168,91.588 -41.144,190.661 -88.616,291.275c47.472,100.614 77.447,199.687 88.616,291.275c19.511,160.002 -17.575,298.709 -111.273,392.407c-93.698,93.698 -232.405,130.784 -392.407,111.273c-91.588,-11.168 -190.661,-41.144 -291.275,-88.616c-100.614,47.472 -199.687,77.447 -291.275,88.616c-160.002,19.511 -298.709,-17.575 -392.407,-111.273c-93.698,-93.698 -130.784,-232.405 -111.273,-392.407c11.168,-91.588 41.144,-190.661 88.616,-291.275Zm1270.556,0c-59.045,-109.494 -140.96,-219.671 -242.752,-321.464c-101.793,-101.793 -211.97,-183.707 -321.464,-242.752c-109.494,59.045 -219.671,140.96 -321.464,242.752c-101.793,101.793 -183.707,211.97 -242.752,321.464c59.045,109.494 140.96,219.671 242.752,321.464c23.169,23.169 46.774,45.309 70.705,66.383c2.219,1.694 4.351,3.554 6.379,5.582l0.02,0.021c24.725,24.747 24.599,65.031 -0.286,89.917c-24.886,24.886 -65.178,25.02 -89.925,0.295c-26.055,-22.893 -51.741,-46.952 -76.939,-72.15c-85.735,-85.735 -158.277,-177.106 -216.614,-269.525c-20.372,56.641 -33.993,111.989 -40.421,164.703c-14.186,116.335 6.785,218.819 74.911,286.945c68.127,68.127 170.611,89.097 286.945,74.911c195.923,-23.891 428.213,-147.141 628.154,-347.082c101.793,-101.793 183.707,-211.97 242.752,-321.464Zm-706.203,-628.125c-56.641,-20.372 -111.989,-33.993 -164.703,-40.421c-116.335,-14.186 -218.819,6.785 -286.945,74.911c-68.127,68.127 -89.097,170.611 -74.911,286.945c6.428,52.715 20.049,108.062 40.421,164.703c58.337,-92.419 130.879,-183.789 216.614,-269.525c85.735,-85.735 177.106,-158.277 269.525,-216.614Zm283.973,1256.25c56.641,20.372 111.989,33.993 164.703,40.421c116.335,14.186 218.819,-6.785 286.945,-74.911c68.127,-68.127 89.097,-170.611 74.911,-286.945c-6.428,-52.715 -20.049,-108.062 -40.421,-164.703c-58.337,92.419 -130.879,183.789 -216.614,269.525c-85.735,85.735 -177.106,158.277 -269.525,216.614Z" style="fill:#020202;"/></svg>