<?xml version="1.0" encoding="UTF-8" standalone="no"?><!DOCTYPE svg PUBLIC "-//W3C//DTD SVG 1.1//EN" "http://www.w3.org/Graphics/SVG/1.1/DTD/svg11.dtd"><svg width="100%" height="100%" viewBox="0 0 1600 1600" version="1.1" xmlns="http://www.w3.org/2000/svg" xmlns:xlink="http://www.w3.org/1999/xlink" xml:space="preserve" xmlns:serif="http://www.serif.com/" style="fill-rule:evenodd;clip-rule:evenodd;stroke-linejoin:round;stroke-miterlimit:2;"><path d="M800,553.587c135.999,0 246.413,110.414 246.413,246.413c0,135.999 -110.414,246.413 -246.413,246.413c-135.999,0 -246.413,-110.414 -246.413,-246.413c0,-135.999 110.414,-246.413 246.413,-246.413Zm0,127.67c-65.536,0 -118.743,53.207 -118.743,118.743c0,65.536 53.207,118.743 118.743,118.743c65.536,0 118.743,-53.207 118.743,-118.743c0,-65.536 -53.207,-118.743 -118.743,-118.743Z" style="fill:#ee6018;"/><path d="M800,520.254c154.396,0 279.746,125.35 279.746,279.746c0,154.396 -125.35,279.746 -279.746,279.746c-154.396,0 -279.746,-125.35 -279.746,-279.746c0,-154.396 125.35,-279.746 279.746,-279.746Zm0,33.333c-135.999,0 -246.413,110.414 -246.413,246.413c0,135.999 110.414,246.413 246.413,246.413c135.999,0 246.413,-110.414 246.413,-246.413c0,-135.999 -110.414,-246.413 -246.413,-246.413Zm0,127.67c65.536,0 118.743,53.207 118.743,118.743c0,65.536 -53.207,118.743 -118.743,118.743c-65.536,0 -118.743,-53.207 -118.743,-118.743c0,-65.536 53.207,-118.743 118.743,-118.743Zm0,33.333c-47.139,0 -85.41,38.271 -85.41,85.41c0,47.139 38.271,85.41 85.41,85.41c47.139,0 85.41,-38.271 85.41,-85.41c0,-47.139 -38.271,-85.41 -85.41,-85.41Z" style="fill:#fff;"/><path d="M128.28,800c-45.145,-95.683 -73.651,-189.899 -84.272,-276.999c-18.555,-152.16 16.714,-284.068 105.819,-373.174c89.106,-89.106 221.014,-124.374 373.174,-105.819c207.849,25.346 456.229,152.54 668.34,364.65c81.533,81.533 150.519,168.425 205.997,256.314c19.374,-53.865 32.327,-106.5 38.44,-156.63c13.491,-110.633 -6.452,-208.094 -71.239,-272.881c-64.787,-64.787 -162.248,-84.73 -272.881,-71.239c-4.036,0.492 -8.089,1.029 -12.157,1.609c-0.469,0.077 -0.94,0.148 -1.413,0.214c-33.29,4.652 -64.072,-18.438 -68.697,-51.532c-4.566,-32.674 18.063,-62.962 50.679,-68.201l0,-0.028c5.672,-0.833 11.315,-1.592 16.929,-2.276c152.16,-18.555 284.068,16.714 373.174,105.819c89.106,89.106 124.374,221.014 105.819,373.174c-10.621,87.099 -39.127,181.316 -84.272,276.999c45.145,95.683 73.651,189.899 84.272,276.999c18.555,152.16 -16.714,284.068 -105.819,373.174c-89.106,89.106 -221.014,124.374 -373.174,105.819c-87.099,-10.621 -181.316,-39.127 -276.999,-84.272c-95.683,45.145 -189.899,73.651 -276.999,84.272c-152.16,18.555 -284.068,-16.714 -373.174,-105.819c-89.106,-89.106 -124.374,-221.014 -105.819,-373.174c10.621,-87.099 39.127,-181.316 84.272,-276.999Zm1208.282,0c-56.151,-104.128 -134.051,-208.905 -230.854,-305.708c-96.803,-96.803 -201.581,-174.703 -305.708,-230.854c-104.128,56.151 -208.905,134.051 -305.708,230.854c-96.803,96.803 -174.703,201.581 -230.854,305.708c56.151,104.128 134.051,208.905 230.854,305.708c22.034,22.034 44.481,43.088 67.24,63.129c2.111,1.611 4.138,3.38 6.066,5.308l0.019,0.02c23.513,23.534 23.394,61.844 -0.272,85.51c-23.666,23.666 -61.984,23.794 -85.518,0.28c-24.778,-21.771 -49.205,-44.651 -73.168,-68.614c-81.533,-81.533 -150.519,-168.425 -205.997,-256.314c-19.374,53.865 -32.327,106.5 -38.44,156.63c-13.491,110.633 6.452,208.094 71.239,272.881c64.787,64.787 162.248,84.73 272.881,71.239c186.321,-22.72 407.224,-139.929 597.366,-330.07c96.803,-96.803 174.703,-201.581 230.854,-305.708Zm-671.59,-597.339c-53.865,-19.374 -106.5,-32.327 -156.63,-38.44c-110.633,-13.491 -208.094,6.452 -272.881,71.239c-64.787,64.787 -84.73,162.248 -71.239,272.881c6.113,50.131 19.066,102.765 38.44,156.63c55.478,-87.889 124.464,-174.781 205.997,-256.314c81.533,-81.533 168.425,-150.519 256.314,-205.997Zm270.055,1194.677c53.865,19.374 106.5,32.327 156.63,38.44c110.633,13.491 208.094,-6.452 272.881,-71.239c64.787,-64.787 84.73,-162.248 71.239,-272.881c-6.113,-50.131 -19.066,-102.765 -38.44,-156.63c-55.478,87.889 -124.464,174.781 -205.997,256.314c-81.533,81.533 -168.425,150.519 -256.314,205.997Z" style="fill:#020202;"/><path d="M1057.668,46.747l-2.442,-33.442c5.942,-0.873 11.855,-1.668 17.737,-2.385c163.598,-19.949 304.975,19.534 400.779,115.338c95.804,95.804 135.287,237.182 115.338,400.779c-10.483,85.97 -37.645,178.67 -80.618,272.963c42.973,94.295 70.135,186.994 80.618,272.965c19.949,163.598 -19.534,304.975 -115.338,400.779c-95.804,95.804 -237.182,135.287 -400.779,115.338c-85.97,-10.483 -178.67,-37.645 -272.963,-80.618c-94.295,42.973 -186.994,70.135 -272.965,80.618c-163.598,19.949 -304.975,-19.534 -400.779,-115.338c-95.804,-95.804 -135.287,-237.182 -115.338,-400.779c10.483,-85.97 37.645,-178.669 80.618,-272.964c-42.973,-94.295 -70.135,-186.993 -80.618,-272.963c-19.949,-163.598 19.534,-304.975 115.338,-400.779c95.804,-95.804 237.182,-135.287 400.779,-115.338c213.775,26.068 469.717,156.01 687.876,374.168c65.134,65.134 122.428,133.621 171.427,203.322c7.537,-28.662 13.019,-56.771 16.352,-84.103c12.099,-99.216 -3.62,-187.175 -61.721,-245.276c-58.102,-58.102 -146.06,-73.82 -245.276,-61.721c-3.72,0.454 -7.455,0.947 -11.045,1.455c-0.646,0.104 -1.295,0.201 -1.947,0.292c-51.564,7.206 -99.16,-28.671 -106.323,-79.931c-7.073,-50.616 27.88,-97.61 78.405,-105.726l2.665,33.39c-6.978,1.431 -13.461,4.02 -19.271,7.532c-6.269,-6.615 -11.441,-11.134 -11.441,-8.038c0,5.611 1.143,10.288 3.005,14.183c-14.978,13.011 -23.287,33.035 -20.351,54.046c4.625,33.093 35.407,56.184 68.697,51.532c0.473,-0.066 0.944,-0.137 1.413,-0.214c4.068,-0.581 8.121,-1.117 12.157,-1.609c110.633,-13.491 208.094,6.452 272.881,71.239c64.787,64.787 84.73,162.248 71.239,272.881c-6.113,50.131 -19.066,102.765 -38.44,156.63c-55.478,-87.889 -124.464,-174.781 -205.997,-256.314c-212.111,-212.111 -460.492,-339.305 -668.34,-364.65c-152.16,-18.555 -284.068,16.714 -373.174,105.819c-89.106,89.106 -124.374,221.014 -105.819,373.174c10.621,87.099 39.127,181.316 84.272,276.999c-45.145,95.683 -73.651,189.899 -84.272,276.999c-18.555,152.16 16.714,284.068 105.819,373.174c89.106,89.106 221.014,124.374 373.174,105.819c87.099,-10.621 181.316,-39.127 276.999,-84.272c95.683,45.145 189.899,73.651 276.999,84.272c152.16,18.555 284.068,-16.714 373.174,-105.819c89.106,-89.106 124.374,-221.014 105.819,-373.174c-10.621,-87.099 -39.127,-181.316 -84.272,-276.999c45.145,-95.683 73.651,-189.899 84.272,-276.999c18.555,-152.16 -16.714,-284.068 -105.819,-373.174c-89.106,-89.106 -221.014,-124.374 -373.174,-105.819c-5.614,0.685 -11.257,1.443 -16.929,2.276l0,0.028c-0.807,0.13 -1.607,0.274 -2.401,0.434Zm-392.696,155.915c-87.889,55.478 -174.781,124.464 -256.314,205.997c-81.533,81.533 -150.519,168.425 -205.997,256.314c-19.374,-53.865 -32.327,-106.5 -38.44,-156.63c-13.491,-110.633 6.452,-208.094 71.239,-272.881c64.787,-64.787 162.248,-84.73 272.881,-71.239c50.131,6.113 102.765,19.066 156.63,38.44Zm-76.563,11c-28.662,-7.537 -56.77,-13.019 -84.103,-16.352c-99.216,-12.099 -187.175,3.62 -245.276,61.721c-58.102,58.102 -73.82,146.06 -61.721,245.276c3.333,27.333 8.815,55.442 16.352,84.103c48.999,-69.7 106.292,-138.188 171.427,-203.322c65.134,-65.134 133.622,-122.428 203.322,-171.427Zm-4.713,989.702c6.492,-3.577 11.753,-9.293 14.713,-16.436c5.057,-12.201 2.426,-26.209 -6.644,-35.739c9.053,9.528 11.678,23.521 6.628,35.713c-2.958,7.141 -8.215,12.857 -14.703,16.435c-2.412,-10.703 -7.769,-20.859 -16.074,-29.172l-0.019,-0.02c-1.928,-1.928 -3.956,-3.698 -6.066,-5.308c-22.758,-20.041 -45.206,-41.096 -67.24,-63.129c-96.803,-96.803 -174.703,-201.581 -230.854,-305.708c56.151,-104.128 134.051,-208.905 230.854,-305.708c96.803,-96.803 201.581,-174.703 305.708,-230.854c104.128,56.151 208.905,134.051 305.708,230.854c96.803,96.803 174.703,201.581 230.854,305.708c-56.151,104.128 -134.051,208.905 -230.854,305.708c-190.141,190.141 -411.045,307.35 -597.366,330.07c-110.633,13.491 -208.094,-6.452 -272.881,-71.239c-64.787,-64.787 -84.73,-162.248 -71.239,-272.881c6.113,-50.131 19.066,-102.765 38.44,-156.63c55.478,87.889 124.464,174.781 205.997,256.314c23.963,23.963 48.39,46.843 73.168,68.614c23.534,23.513 61.852,23.386 85.518,-0.28c15.3,-15.3 20.758,-36.72 16.353,-56.311Zm7.501,-52.759c36.473,36.505 36.427,95.93 -0.283,132.64c-36.44,36.44 -95.277,36.76 -131.803,1.124c-25.065,-22.05 -49.776,-45.211 -74.024,-69.458c-65.134,-65.134 -122.428,-133.621 -171.427,-203.322c-7.537,28.662 -13.019,56.771 -16.352,84.103c-12.099,99.216 3.62,187.175 61.721,245.276c58.102,58.102 146.06,73.82 245.276,61.721c180.396,-21.998 393.735,-136.457 577.83,-320.552c89.46,-89.46 162.406,-185.872 216.384,-282.138c-53.978,-96.266 -126.923,-192.677 -216.384,-282.138c-89.46,-89.46 -185.871,-162.406 -282.138,-216.383c-96.266,53.978 -192.677,126.923 -282.137,216.383c-89.46,89.46 -162.406,185.871 -216.383,282.138c53.978,96.266 126.923,192.677 216.383,282.137c21.28,21.28 42.955,41.625 64.913,60.992c2.909,2.285 5.713,4.766 8.393,7.446l0.029,0.03Zm343.83,246.733c87.889,-55.478 174.781,-124.464 256.314,-205.997c81.533,-81.533 150.519,-168.425 205.997,-256.314c19.374,53.865 32.327,106.5 38.44,156.63c13.491,110.633 -6.452,208.094 -71.239,272.881c-64.787,64.787 -162.248,84.73 -272.881,71.239c-50.131,-6.113 -102.765,-19.066 -156.63,-38.44Zm76.563,-11c28.662,7.537 56.77,13.019 84.103,16.352c99.216,12.099 187.175,-3.62 245.276,-61.721c58.102,-58.102 73.82,-146.06 61.721,-245.276c-3.333,-27.333 -8.815,-55.442 -16.352,-84.103c-48.999,69.7 -106.292,138.188 -171.427,203.322c-65.134,65.134 -133.622,122.428 -203.322,171.427Z" style="fill:#fff;"/></svg>